<?xml version="1.0" standalone="no"?>
<!DOCTYPE svg PUBLIC "-//W3C//DTD SVG 20010904//EN"
 "http://www.w3.org/TR/2001/REC-SVG-20010904/DTD/svg10.dtd">
<svg version="1.0" xmlns="http://www.w3.org/2000/svg"
 width="301.000000pt" height="301.000000pt" viewBox="0 0 301.000000 301.000000"
 preserveAspectRatio="xMidYMid meet">
<metadata>
Created by potrace 1.11, written by Peter Selinger 2001-2013
</metadata>
<g transform="translate(0.000000,301.000000) scale(0.100000,-0.100000)"
fill="#000000" stroke="none">
<path d="M0 2459 l0 -552 65 6 c36 4 65 3 65 -2 0 -11 148 -6 186 7 37 12 54
1 54 -33 0 -31 -30 -55 -56 -45 -12 5 -25 13 -29 19 -3 6 -22 11 -41 11 -24 0
-34 4 -34 16 0 10 -7 14 -17 12 -10 -2 -17 -10 -15 -17 2 -9 -3 -9 -19 0 -15
8 -19 8 -15 0 4 -7 -1 -11 -13 -11 -12 0 -21 7 -21 16 0 14 -1 14 -16 0 -8 -9
-30 -16 -47 -16 -30 1 -31 1 -13 15 19 14 19 15 -7 15 l-26 0 -1 -950 0 -950
78 0 79 0 -5 125 c-6 153 9 258 49 342 32 68 72 106 159 152 31 17 65 40 76
52 23 26 97 64 143 74 19 4 47 15 63 25 26 16 30 24 33 79 2 49 12 79 48 150
25 48 49 106 53 127 7 37 22 69 66 141 11 18 16 38 12 44 -4 7 -11 1 -19 -17
-12 -27 -13 -26 -12 27 1 42 4 56 14 52 7 -3 10 -9 7 -14 -3 -6 0 -16 6 -25
10 -11 16 -12 26 -3 11 9 14 7 14 -12 0 -13 9 -37 20 -54 26 -39 25 -42 -6
-49 -36 -9 -83 -46 -100 -78 -16 -32 -18 -96 -4 -134 14 -35 4 -44 -11 -11
-21 45 -59 21 -83 -53 -23 -70 -32 -140 -17 -140 6 0 11 7 11 15 0 12 4 13 18
6 12 -6 23 -5 37 5 10 8 26 14 35 14 27 0 232 128 272 169 46 48 68 118 104
323 14 84 34 178 43 209 13 39 15 63 9 80 -11 27 -6 144 7 173 6 14 5 17 -3
12 -7 -4 -12 -16 -12 -27 0 -11 -5 -17 -10 -14 -19 12 -10 51 20 81 20 21 36
55 50 108 25 88 20 110 -10 45 -11 -24 -29 -57 -40 -74 -11 -16 -20 -43 -20
-60 -1 -26 -2 -28 -11 -11 -7 12 -8 26 -2 40 5 11 7 31 4 44 l-6 24 -21 -24
c-12 -13 -27 -34 -34 -48 -8 -14 -15 -20 -17 -14 -10 30 180 248 208 241 10
-3 26 4 36 17 18 21 18 21 -4 3 -46 -39 -36 25 12 76 18 19 21 27 11 27 -8 0
-30 -25 -48 -55 -18 -30 -37 -55 -43 -55 -5 0 -44 -31 -86 -69 -42 -37 -90
-74 -106 -81 -41 -18 -64 -55 -70 -108 -2 -26 -8 -51 -13 -55 -4 -5 -6 13 -3
40 l5 48 -18 -25 c-10 -14 -33 -52 -51 -85 -18 -33 -33 -56 -33 -51 0 5 16 38
35 74 37 66 42 95 9 45 -24 -35 -48 -43 -31 -10 22 41 60 91 101 135 44 46 35
53 -31 22 -45 -20 -146 -108 -138 -120 2 -4 -2 -16 -10 -26 -8 -10 -15 -14
-15 -8 0 5 6 16 13 24 10 12 9 12 -6 0 -11 -8 -16 -21 -14 -32 3 -11 1 -15 -5
-12 -6 4 -8 -1 -4 -12 3 -11 1 -26 -5 -34 -8 -11 -9 -9 -3 10 9 34 -8 16 -23
-23 -10 -27 -12 -28 -12 -9 -1 12 6 39 14 58 8 20 12 41 8 47 -3 5 -2 7 3 4 6
-3 32 17 59 45 26 27 72 66 101 85 30 20 56 43 59 52 3 9 16 29 29 44 14 16
27 34 30 40 3 9 7 9 13 -1 13 -17 41 16 82 93 17 33 57 84 89 114 31 30 48 49
37 42 -11 -7 -2 3 20 23 35 32 194 120 220 122 28 2 64 17 60 24 -6 9 37 22
78 24 44 2 43 -12 -1 -24 -22 -5 -50 -18 -63 -29 -25 -19 -29 -21 -54 -21 -17
0 -88 -60 -80 -68 3 -3 14 3 25 13 30 27 24 11 -11 -32 -17 -21 -4 -9 30 27
33 36 60 60 61 54 0 -5 -6 -16 -12 -23 -11 -11 -9 -13 10 -8 14 3 22 1 21 -6
-4 -34 2 -42 16 -23 13 17 15 17 15 3 0 -14 4 -15 27 -6 l28 10 -21 -23 c-12
-13 -29 -35 -38 -50 l-17 -26 43 5 c24 3 62 14 86 24 25 11 40 13 35 6 -4 -7
-8 -16 -8 -22 0 -5 -7 -10 -15 -10 -8 0 -25 -4 -37 -8 -21 -8 -25 -14 -22 -33
0 -4 -5 -11 -13 -15 -24 -16 20 -10 60 7 41 18 105 27 97 14 -6 -10 -91 -40
-119 -41 -12 -1 -6 -5 14 -9 23 -5 28 -8 13 -9 -13 0 -23 -5 -23 -9 0 -10 40
-48 46 -44 10 6 24 1 24 -9 0 -6 -7 -8 -16 -5 -13 5 -14 1 -8 -27 4 -17 6 -52
5 -76 -1 -43 -1 -44 18 -27 29 26 55 17 59 -20 2 -21 11 -35 26 -42 20 -9 27
-7 47 14 32 34 108 56 151 42 64 -20 117 -51 134 -77 14 -22 11 -21 -20 8 -41
40 -48 36 -64 -34 -17 -80 -29 -105 -47 -99 -8 3 -15 12 -15 19 0 8 -8 11 -20
8 -11 -3 -27 0 -35 7 -12 10 -9 21 20 81 19 38 35 71 35 74 0 8 -35 6 -67 -6
-21 -7 -39 -25 -54 -54 -14 -26 -28 -41 -36 -38 -22 9 -36 -46 -25 -97 9 -40
9 -43 -4 -26 -17 23 -18 83 -3 123 9 24 7 30 -11 45 -28 23 -39 22 -70 -2 -21
-16 -22 -18 -5 -14 54 12 56 -52 2 -84 -18 -11 -41 -36 -52 -56 -18 -35 -18
-39 -2 -47 9 -6 22 -19 28 -30 10 -19 9 -20 -11 -9 -11 6 -29 10 -39 8 -10 -2
-24 2 -32 9 -11 9 -27 9 -59 2 -101 -21 -100 -20 -40 -38 30 -9 56 -14 58 -9
2 4 17 1 34 -8 16 -8 27 -18 24 -22 -4 -3 -12 0 -18 6 -7 7 -17 12 -22 12 -6
0 2 -11 18 -23 20 -16 25 -26 18 -31 -7 -4 -12 -3 -12 1 0 19 -76 14 -99 -6
-22 -20 -23 -22 -7 -45 21 -33 21 -75 -1 -83 -10 -3 -40 -20 -67 -37 l-48 -31
31 -26 c85 -70 -14 -31 -107 43 -40 32 -76 58 -79 58 -2 0 13 -21 35 -47 55
-66 112 -163 112 -191 0 -13 4 -20 10 -17 5 3 10 -1 10 -9 0 -9 -4 -16 -9 -16
-6 0 -7 -16 -4 -35 3 -19 2 -42 -2 -52 -5 -10 -7 -22 -6 -26 1 -4 -5 -15 -14
-23 -8 -9 -15 -24 -15 -35 0 -11 -7 -22 -16 -26 -16 -6 -74 -116 -74 -140 0
-7 -4 -13 -10 -13 -22 0 7 -277 33 -318 10 -15 70 -16 136 0 48 11 52 10 85
-16 34 -25 47 -58 28 -70 -5 -3 -9 -20 -8 -38 1 -30 6 -34 61 -58 33 -14 87
-44 121 -67 109 -75 275 -273 229 -273 -12 0 -15 -5 -11 -16 3 -9 6 -22 6 -30
0 -12 57 -14 371 -14 l371 0 -5 133 c-3 72 -6 148 -8 167 -1 19 -1 49 0 65 5
43 26 -81 42 -237 l13 -128 113 0 113 0 0 436 c0 422 -1 437 -20 461 -22 28
-19 61 6 76 12 7 14 154 14 892 l0 885 -53 0 c-59 0 -79 11 -140 77 -58 63
-70 88 -64 140 l5 43 -973 0 c-870 0 -973 -2 -979 -16 -3 -8 -2 -13 2 -10 4 2
8 -29 9 -70 1 -41 -3 -74 -7 -74 -12 0 -24 64 -18 95 3 14 1 25 -4 25 -5 0 -7
4 -4 9 4 5 3 16 0 25 -5 14 -33 16 -210 16 -226 0 -208 6 -204 -69 2 -40 9
-271 11 -381 4 -149 -3 -345 -11 -325 -4 11 -5 25 -3 32 3 7 1 18 -3 25 -4 6
-8 21 -9 32 -7 90 -18 192 -21 198 -3 4 -7 74 -9 155 -3 81 -10 190 -17 241
l-12 92 -82 0 -82 0 3 -117 c2 -65 6 -199 9 -298 3 -99 8 -211 11 -249 5 -70
-1 -116 -15 -116 -7 0 -17 123 -26 310 -2 52 -9 156 -15 230 -6 74 -11 159
-11 188 l0 52 -44 0 -44 0 0 -551z m580 511 c0 -5 -4 -10 -10 -10 -5 0 -10 5
-10 10 0 6 5 10 10 10 6 0 10 -4 10 -10z m10 -97 c5 -29 4 -53 -2 -60 -7 -9
-7 -17 1 -26 6 -8 10 -32 8 -53 -1 -31 -6 -40 -20 -41 -15 -2 -18 4 -16 35 2
20 0 72 -5 114 -4 43 -5 82 -1 89 12 19 27 -6 35 -58z m232 -100 c-7 -36 -12
-27 -11 20 0 30 3 36 8 23 4 -11 6 -30 3 -43z m18 -58 c0 -8 -4 -15 -10 -15
-5 0 -7 7 -4 15 4 8 8 15 10 15 2 0 4 -7 4 -15z m-22 -51 c-3 -14 -5 -12 -10
9 -3 19 -2 25 4 19 6 -6 8 -18 6 -28z m-219 -53 c-1 -9 1 -23 5 -32 6 -14 -8
-69 -18 -69 -2 0 -4 37 -4 83 0 60 3 76 10 58 5 -14 8 -32 7 -40z m228 -28
c-3 -10 -5 -2 -5 17 0 19 2 27 5 18 2 -10 2 -26 0 -35z m998 37 c3 -5 1 -10
-4 -10 -6 0 -11 5 -11 10 0 6 2 10 4 10 3 0 8 -4 11 -10z m-185 -14 c0 -2 -7
-7 -16 -10 -8 -3 -12 -2 -9 4 6 10 25 14 25 6z m245 -18 c-22 -5 -50 -6 -62
-3 -12 3 -25 0 -28 -5 -4 -6 -11 -7 -18 -3 -17 10 15 18 85 19 60 2 61 1 23
-8z m-130 -8 c3 -5 2 -10 -4 -10 -5 0 -13 5 -16 10 -3 6 -2 10 4 10 5 0 13 -4
16 -10z m201 -15 c4 -8 12 -15 20 -15 8 0 14 -4 14 -10 0 -17 -15 -11 -40 15
-13 14 -18 25 -11 25 6 0 14 -7 17 -15z m-376 0 c0 -2 -10 -10 -22 -16 -21
-11 -22 -11 -9 4 13 16 31 23 31 12z m280 1 c0 -2 -13 -9 -30 -15 -35 -12 -41
-5 -7 9 25 10 37 12 37 6z m969 -29 c37 -31 51 -92 54 -239 l2 -143 -34 -65
c-34 -66 -58 -100 -72 -100 -4 0 -15 21 -25 48 -26 69 -34 491 -9 515 16 17
52 10 84 -16z m-794 -17 c-3 -28 -1 -30 28 -30 23 0 45 -11 77 -40 25 -22 65
-55 89 -73 25 -17 47 -39 49 -47 3 -8 -11 -1 -29 15 -19 17 -27 21 -18 10 9
-11 20 -27 24 -35 6 -12 5 -13 -6 -2 -19 17 -34 15 -19 -3 15 -18 5 -34 -11
-18 -6 6 -16 21 -23 34 -22 43 -31 31 -28 -38 2 -63 1 -66 -13 -49 -15 19 -15
19 -15 -5 -1 -21 -2 -21 -15 10 -8 18 -15 50 -15 70 1 34 2 35 15 17 8 -11 15
-15 15 -10 0 6 -7 19 -15 30 -21 27 -18 52 6 59 14 5 17 10 10 18 -14 17 -75
52 -67 38 4 -6 2 -11 -3 -11 -6 0 -11 5 -11 11 0 5 -4 8 -10 4 -5 -3 -7 -13
-4 -23 4 -11 -1 -9 -14 7 -19 23 -20 23 -30 5 -10 -16 -11 -13 -12 20 0 34 2
37 16 26 8 -8 14 -9 13 -4 -2 9 11 44 17 44 1 0 1 -13 -1 -30z m121 -31 c3 -6
-5 -4 -18 5 -14 9 -28 13 -33 9 -4 -5 -5 -2 -1 5 8 13 39 2 52 -19z m-1547
-62 c1 -5 -3 -5 -9 -2 -5 3 -10 16 -9 28 0 21 1 21 9 2 5 -11 9 -24 9 -28z
m1581 8 c11 -13 10 -14 -4 -9 -9 3 -16 10 -16 15 0 13 6 11 20 -6z m-1580 -46
c0 -6 -4 -7 -10 -4 -5 3 -10 11 -10 16 0 6 5 7 10 4 6 -3 10 -11 10 -16z
m1255 1 c-10 -11 -14 -20 -10 -20 5 0 4 -5 -2 -11 -8 -8 -15 -8 -26 2 -12 12
-11 16 12 31 36 23 48 22 26 -2z m-620 -10 c-7 -11 -45 -33 -45 -26 0 2 7 12
16 20 17 18 39 22 29 6z m485 -49 c0 -5 -7 -12 -16 -15 -24 -9 -28 -7 -14 9
14 17 30 20 30 6z m-655 -87 c-22 -19 -53 -44 -70 -56 -29 -21 -29 -20 5 17
32 34 87 75 100 75 3 -1 -13 -17 -35 -36z m-235 -25 c0 -6 -4 -7 -10 -4 -5 3
-10 11 -10 16 0 6 5 7 10 4 6 -3 10 -11 10 -16z m1340 -28 c-5 -11 -15 -23
-21 -27 -6 -3 -3 5 6 20 20 30 30 35 15 7z m-1172 -123 c-14 -18 -31 -34 -39
-36 -8 -3 2 12 20 32 43 45 52 47 19 4z m-105 -28 c-3 -12 -8 -19 -11 -16 -5
6 5 36 12 36 2 0 2 -9 -1 -20z m1327 -202 c-12 -15 -40 -25 -40 -14 0 15 24
66 31 66 5 0 10 10 10 23 1 12 5 4 8 -18 4 -28 2 -45 -9 -57z m-1685 68 c8 -7
11 -16 8 -19 -5 -6 -33 17 -33 27 0 10 11 7 25 -8z m-55 -6 c0 -12 -8 -12 -35
0 -18 8 -17 9 8 9 15 1 27 -3 27 -9z m105 -10 c-3 -5 -10 -10 -16 -10 -5 0 -9
5 -9 10 0 6 7 10 16 10 8 0 12 -4 9 -10z m2205 -9 c5 -11 10 -53 10 -93 0 -40
7 -92 15 -115 16 -46 9 -81 -22 -115 -41 -45 -80 5 -70 90 3 26 10 89 16 140
6 52 14 98 17 103 9 15 23 10 34 -10z m-2092 -26 c-3 -3 -9 2 -12 12 -6 14 -5
15 5 6 7 -7 10 -15 7 -18z m-238 -5 c0 -5 -7 -10 -15 -10 -8 0 -15 5 -15 10 0
6 7 10 15 10 8 0 15 -4 15 -10z m668 -37 c14 -12 13 -13 -5 -13 -27 0 -47 25
-38 47 6 17 7 16 17 -2 6 -11 18 -26 26 -32z m695 39 c8 -11 -4 -62 -14 -62
-5 0 -7 11 -3 25 5 21 3 25 -14 25 -12 0 -26 -8 -31 -17 -9 -15 -10 -15 -11
-2 0 8 5 20 12 27 13 13 54 16 61 4z m-982 -49 c-8 -15 -10 -15 -11 -2 0 17
10 32 18 25 2 -3 -1 -13 -7 -23z m1394 8 c-3 -12 0 -21 10 -25 25 -9 18 -28
-7 -20 -13 3 -20 3 -16 -1 10 -11 -70 -75 -102 -81 -18 -4 -33 -19 -50 -51
-13 -25 -49 -73 -80 -107 -30 -34 -64 -74 -75 -89 -20 -27 -105 -101 -92 -80
5 8 -12 10 -60 7 -47 -3 -82 0 -112 11 -24 8 -46 13 -50 11 -4 -3 -13 -1 -20
3 -9 6 -5 14 16 28 15 11 37 23 49 27 33 10 77 65 65 80 -11 13 -10 76 1 76
20 0 57 -25 66 -44 9 -20 10 -19 16 12 8 35 31 52 70 52 14 0 28 5 31 10 5 8
11 8 19 1 8 -7 24 -3 52 14 21 13 48 25 59 25 12 1 5 6 -19 15 -21 7 -44 19
-50 25 -6 6 9 4 34 -5 54 -19 81 -16 97 10 12 19 12 19 13 -3 0 -19 4 -22 23
-17 33 11 97 76 97 100 0 20 8 35 17 35 3 0 2 -8 -2 -19z m-245 -1 c8 -5 11
-10 5 -10 -5 0 -17 5 -25 10 -8 5 -10 10 -5 10 6 0 17 -5 25 -10z m-1122 -83
c-1 -13 4 -39 12 -58 l15 -34 6 40 6 40 2 -42 c0 -23 5 -43 9 -45 5 -1 22 -29
40 -61 36 -67 14 -57 -26 12 -14 25 -34 52 -44 59 -20 14 -40 76 -31 98 8 21
13 17 11 -9z m927 -59 c14 -34 12 -48 -8 -48 -7 0 -12 16 -12 40 -1 22 1 40 2
40 2 0 10 -15 18 -32z m-895 -79 c0 -6 -4 -7 -10 -4 -5 3 -10 11 -10 16 0 6 5
7 10 4 6 -3 10 -11 10 -16z m-93 -36 c-3 -10 -5 -4 -5 12 0 17 2 24 5 18 2 -7
2 -21 0 -30z m32 -80 c5 -28 2 -42 -9 -53 -8 -8 -11 -12 -6 -7 16 12 36 8 36
-7 0 -8 -5 -18 -12 -22 -7 -4 -8 -3 -4 4 7 12 -44 9 -65 -4 -8 -5 -9 -3 -4 6
6 9 2 10 -15 5 -16 -5 -11 3 19 30 31 28 41 45 41 68 0 40 11 28 19 -20z
m1142 -30 c13 -15 12 -15 -8 -4 -24 12 -29 21 -14 21 5 0 15 -7 22 -17z m-942
-246 c0 -21 -1 -21 -9 -2 -12 28 -12 37 0 30 6 -3 10 -16 9 -28z m1749 -50 c2
-11 -3 -17 -17 -17 -23 0 -35 15 -26 31 10 15 39 6 43 -14z m-1731 -39 c-2
-13 -4 -5 -4 17 -1 22 1 32 4 23 2 -10 2 -28 0 -40z m-233 17 c-4 -8 -8 -15
-10 -15 -2 0 -4 7 -4 15 0 8 4 15 10 15 5 0 7 -7 4 -15z m95 -122 c-35 -47
-58 -67 -101 -89 -26 -13 -55 -24 -64 -24 -9 0 -27 -11 -40 -26 -13 -14 -24
-21 -24 -16 0 5 3 12 7 16 4 4 8 15 8 24 0 9 7 17 15 17 36 0 140 49 171 81
35 37 50 45 28 17z m1913 -23 c13 -24 18 -59 18 -112 0 -60 5 -85 20 -110 37
-62 13 -150 -38 -134 -22 7 -38 44 -51 122 -5 27 -16 88 -26 136 -17 82 -17
88 -1 113 24 36 56 30 78 -15z m-186 -382 l29 -33 -32 29 c-31 28 -38 36 -30
36 2 0 16 -15 33 -32z m44 -73 c0 -5 -5 -3 -10 5 -5 8 -10 20 -10 25 0 6 5 3
10 -5 5 -8 10 -19 10 -25z m20 -50 c0 -5 -5 -3 -10 5 -5 8 -10 20 -10 25 0 6
5 3 10 -5 5 -8 10 -19 10 -25z m7 -57 c-3 -7 -5 -2 -5 12 0 14 2 19 5 13 2 -7
2 -19 0 -25z"/>
<path d="M2141 2294 c0 -11 3 -14 6 -6 3 7 2 16 -1 19 -3 4 -6 -2 -5 -13z"/>
<path d="M799 1413 c-13 -16 -12 -17 4 -4 9 7 17 15 17 17 0 8 -8 3 -21 -13z"/>
<path d="M2920 3006 c0 -18 76 -146 86 -146 2 0 4 34 4 75 l0 75 -45 0 c-25 0
-45 -2 -45 -4z"/>
<path d="M1370 2399 l-45 -41 48 37 c41 33 53 45 45 45 -2 0 -23 -18 -48 -41z"/>
<path d="M1300 2317 c-40 -36 -75 -87 -61 -87 19 0 81 42 81 55 0 7 7 18 15
25 16 13 21 40 8 40 -5 -1 -24 -15 -43 -33z"/>
<path d="M1181 2224 c-21 -35 -24 -58 -4 -32 12 16 34 68 29 68 -2 0 -14 -16
-25 -36z"/>
<path d="M1680 2240 c0 -5 -6 -10 -14 -10 -10 0 -14 -10 -14 -32 1 -18 -4 -34
-10 -36 -12 -4 -2 -28 28 -66 13 -17 11 -17 -14 2 -26 20 -31 21 -46 7 -11
-10 -27 -13 -55 -8 l-39 6 54 -47 c30 -25 60 -50 65 -55 14 -11 65 8 65 24 0
8 -4 17 -10 20 -5 3 -10 11 -10 16 0 6 5 7 10 4 6 -3 10 -5 10 -3 0 2 4 18 9
35 7 22 6 35 -1 39 -7 4 -8 2 -4 -4 4 -7 3 -12 -2 -12 -5 0 -9 14 -9 30 0 22
4 29 14 25 7 -3 20 -8 28 -11 21 -9 19 13 -6 52 -19 32 -49 46 -49 24z m-90
-170 c0 -5 -4 -10 -9 -10 -6 0 -13 5 -16 10 -3 6 1 10 9 10 9 0 16 -4 16 -10z"/>
<path d="M1144 2118 l-19 -23 23 19 c21 18 27 26 19 26 -2 0 -12 -10 -23 -22z"/>
<path d="M1080 2095 c-7 -9 -11 -18 -8 -20 3 -3 11 1 18 10 7 9 11 18 8 20 -3
3 -11 -1 -18 -10z"/>
<path d="M1296 2063 c-6 -14 -5 -15 5 -6 7 7 10 15 7 18 -3 3 -9 -2 -12 -12z"/>
<path d="M1040 2059 c0 -5 5 -7 10 -4 6 3 10 8 10 11 0 2 -4 4 -10 4 -5 0 -10
-5 -10 -11z"/>
<path d="M320 1899 c-14 -4 -19 -7 -12 -8 6 -1 12 -6 12 -12 0 -5 -4 -7 -10
-4 -5 3 -10 2 -10 -4 0 -6 10 -15 22 -22 18 -10 20 -9 15 4 -4 11 -2 14 9 10
9 -3 14 2 14 15 0 26 -9 31 -40 21z"/>
<path d="M1677 1873 c-24 -6 -11 -23 19 -23 15 0 24 6 24 15 0 15 -9 17 -43 8z"/>
<path d="M1493 1763 c-20 -7 -15 -23 7 -23 11 0 20 4 20 9 0 13 -12 19 -27 14z"/>
<path d="M1240 1554 c0 -8 5 -12 10 -9 6 4 8 11 5 16 -9 14 -15 11 -15 -7z"/>
<path d="M865 1261 c-17 -33 -15 -48 4 -36 19 11 30 41 21 54 -6 10 -12 5 -25
-18z"/>
<path d="M620 411 c-14 -4 -25 -13 -25 -21 0 -8 -7 -18 -17 -22 -20 -8 -58 1
-58 14 0 13 -106 1 -135 -15 -11 -5 -37 -24 -57 -41 -48 -40 -65 -92 -71 -224
l-5 -102 186 2 186 3 13 60 c17 84 37 300 29 330 -7 27 -7 27 -46 16z"/>
<path d="M1975 30 c3 -5 8 -10 11 -10 2 0 4 5 4 10 0 6 -5 10 -11 10 -5 0 -7
-4 -4 -10z"/>
</g>
</svg>
